<svg xmlns="http://www.w3.org/2000/svg" width="35" height="27" viewBox="0 0 35 27" fill="none">
  <path fill-rule="evenodd" clip-rule="evenodd" d="M0.973778 23.3947C1.64701 24.4286 2.52461 25.198 3.60659 25.7029C4.71261 26.2078 5.90278 26.4603 7.17711 26.4603C8.082 26.4603 8.9384 26.333 9.74631 26.0784C9.41153 25.9744 9.08381 25.8493 8.76317 25.7029C7.6812 25.198 6.8036 24.4286 6.13037 23.3947C5.48118 22.3608 5.15659 21.0624 5.15659 19.4996V7.52571L5.59021 7.5257H0V19.4996C0 21.0624 0.324593 22.3608 0.973778 23.3947ZM10.7468 8.96464V20.2209C10.7468 20.5094 10.8189 20.7739 10.9632 21.0143C11.1075 21.2548 11.2998 21.4471 11.5402 21.5914C11.7807 21.7357 12.0452 21.8078 12.3337 21.8078C12.6222 21.8078 12.8867 21.7357 13.1271 21.5914C13.3676 21.4471 13.5599 21.2548 13.7042 21.0143C13.8485 20.7739 13.9206 20.5094 13.9206 20.2209V14.0536C13.9206 12.5629 14.2332 11.3006 14.8583 10.2667C15.4834 9.23282 16.337 8.45139 17.419 7.92243C17.7809 7.74145 18.157 7.59009 18.5473 7.46834C17.7559 7.21806 16.8992 7.09291 15.9772 7.09291C14.6067 7.09291 13.3684 7.36942 12.2624 7.92243C11.6942 8.20021 11.189 8.54761 10.7468 8.96464ZM26.3641 8.99894C26.7489 9.36799 27.0853 9.79058 27.3732 10.2667C27.9983 11.3006 28.3109 12.5629 28.3109 14.0536V20.2209C28.3109 20.5094 28.383 20.7739 28.5273 21.0143C28.6715 21.2548 28.8639 21.4471 29.1043 21.5914C29.3688 21.7357 29.6453 21.8078 29.9338 21.8078C30.2224 21.8078 30.4868 21.7357 30.7273 21.5914C30.9677 21.4471 31.1601 21.2548 31.3043 21.0143C31.4486 20.7739 31.5207 20.5094 31.5207 20.2209V7.52571L31.9544 7.5257H26.3641V8.99894ZM27.3464 26.0784C27.0117 25.9744 26.684 25.8493 26.3633 25.7029C25.2813 25.198 24.4037 24.4286 23.7305 23.3947C23.0573 22.3608 22.7207 21.0624 22.7207 19.4996V13.3684C22.7207 13.0558 22.6485 12.7793 22.5043 12.5389C22.36 12.2984 22.1677 12.1061 21.9272 11.9618C21.6868 11.8175 21.4223 11.7454 21.1338 11.7454C20.8452 11.7454 20.5687 11.8175 20.3042 11.9618C20.0638 12.1061 19.8715 12.2984 19.7272 12.5389C19.5829 12.7793 19.5108 13.0558 19.5108 13.3684V19.4996C19.5108 21.0339 19.1863 22.3134 18.5374 23.3379C18.5495 23.3569 18.5616 23.3758 18.5739 23.3947C19.2471 24.4286 20.1248 25.198 21.2067 25.7029C22.3127 26.2078 23.5029 26.4603 24.7772 26.4603C25.6821 26.4603 26.5385 26.333 27.3464 26.0784Z" fill="#FFB629"/>
</svg>